<svg xmlns="http://www.w3.org/2000/svg" viewBox="0 0 120 120" width="120" height="120" aria-hidden="true">
  <path d="M18 28 C18 14 28 8 44 8 L76 8 C92 8 102 14 102 28 L102 62 C102 76 92 84 76 84 L52 84 L38 98 L42 78 C26 74 18 66 18 52 Z" fill="#58cc02" stroke="#46a302" stroke-width="2"/>
  <circle cx="46" cy="38" r="5" fill="#fff"/>
  <circle cx="74" cy="38" r="5" fill="#fff"/>
  <path d="M48 58 Q60 62 72 56" fill="none" stroke="#fff" stroke-width="2.5" stroke-linecap="round"/>
  <ellipse cx="88" cy="22" rx="6" ry="6" fill="#d7ffb8" opacity="0.9"/>
  <ellipse cx="98" cy="14" rx="4" ry="4" fill="#d7ffb8" opacity="0.7"/>
  <path d="M68 48 L78 42" stroke="#fff" stroke-width="3" stroke-linecap="round"/>
  <ellipse cx="26" cy="70" rx="7" ry="4" fill="#58cc02" transform="rotate(-15 26 70)"/>
</svg>
