<svg xmlns="http://www.w3.org/2000/svg" viewBox="0 0 120 120" width="120" height="120" aria-hidden="true">
  <path d="M18 28 C18 14 28 8 44 8 L76 8 C92 8 102 14 102 28 L102 62 C102 76 92 84 76 84 L52 84 L38 98 L42 78 C26 74 18 66 18 52 Z" fill="#58cc02" stroke="#46a302" stroke-width="2"/>
  <path d="M44 38 L52 46 L60 36" fill="none" stroke="#fff" stroke-width="3" stroke-linecap="round"/>
  <path d="M68 36 L76 46 L84 38" fill="none" stroke="#fff" stroke-width="3" stroke-linecap="round"/>
  <path d="M48 60 Q60 72 72 60" fill="none" stroke="#fff" stroke-width="4" stroke-linecap="round"/>
  <ellipse cx="22" cy="52" rx="10" ry="6" fill="#58cc02" transform="rotate(-35 22 52)"/>
  <ellipse cx="98" cy="52" rx="10" ry="6" fill="#58cc02" transform="rotate(35 98 52)"/>
</svg>
