<svg xmlns="http://www.w3.org/2000/svg" viewBox="0 0 120 120" width="120" height="120" aria-hidden="true">
  <path d="M10 20 L14 32 L26 30 L16 38 L20 50 L10 42 L0 50 L4 38 L-6 30 L6 32 Z" fill="#ffc800" transform="translate(84) scale(0.45)"/>
  <path d="M10 20 L14 32 L26 30 L16 38 L20 50 L10 42 L0 50 L4 38 L-6 30 L6 32 Z" fill="#ce82ff" transform="translate(98 8) scale(0.4)"/>
  <path d="M18 28 C18 14 28 8 44 8 L76 8 C92 8 102 14 102 28 L102 62 C102 76 92 84 76 84 L52 84 L38 98 L42 78 C26 74 18 66 18 52 Z" fill="#58cc02" stroke="#46a302" stroke-width="2"/>
  <path d="M42 34 L48 42 L56 30" fill="none" stroke="#fff" stroke-width="2.5" stroke-linecap="round"/>
  <path d="M66 30 L72 42 L80 34" fill="none" stroke="#fff" stroke-width="2.5" stroke-linecap="round"/>
  <path d="M46 58 Q60 70 74 58" fill="none" stroke="#fff" stroke-width="3.5" stroke-linecap="round"/>
  <ellipse cx="20" cy="48" rx="11" ry="7" fill="#58cc02" transform="rotate(-40 20 48)"/>
  <ellipse cx="100" cy="48" rx="11" ry="7" fill="#58cc02" transform="rotate(40 100 48)"/>
</svg>
