<svg xmlns="http://www.w3.org/2000/svg" viewBox="0 0 120 120" width="120" height="120" aria-hidden="true">
  <path d="M18 28 C18 14 28 8 44 8 L76 8 C92 8 102 14 102 28 L102 62 C102 76 92 84 76 84 L52 84 L38 98 L42 78 C26 74 18 66 18 52 Z" fill="#58cc02" stroke="#46a302" stroke-width="2"/>
  <circle cx="48" cy="40" r="6" fill="#fff"/>
  <circle cx="72" cy="40" r="6" fill="#fff"/>
  <path d="M48 58 Q60 68 72 58" fill="none" stroke="#fff" stroke-width="3" stroke-linecap="round"/>
  <ellipse cx="28" cy="68" rx="8" ry="5" fill="#58cc02" transform="rotate(-20 28 68)"/>
  <ellipse cx="92" cy="68" rx="8" ry="5" fill="#58cc02" transform="rotate(20 92 68)"/>
</svg>
